<svg width="44" height="68" viewBox="0 0 44 68" fill="none" xmlns="http://www.w3.org/2000/svg">
<path d="M43.0461 7.38431C42.4696 6.49035 41.6275 6.46468 40.6679 6.43542C40.5592 6.43211 40.4489 6.42875 40.3374 6.42407C40.2525 6.42011 40.1587 6.42164 40.0608 6.42323C39.6716 6.42956 39.2164 6.43697 38.987 6.10582C38.7211 5.72189 38.7464 4.97994 38.7672 4.36743C38.7738 4.17388 38.7799 3.99314 38.7763 3.84083C38.7389 2.41797 38.661 0.90653 38.1186 0.401256C37.7096 0.0221576 36.486 0.0746766 35.3576 0.123112C34.9918 0.138813 34.636 0.154085 34.3211 0.154085H10.3022C9.81861 0.154085 9.31168 0.114208 8.81359 0.0750264C7.84305 -0.00132085 6.90609 -0.0750262 6.24073 0.154085C5.27511 0.488216 5.20973 2.244 5.14816 3.89734L5.14485 3.98629C5.09315 5.35119 4.75913 6.40439 3.65211 6.2983C2.36456 6.1769 1.08337 6.13862 0.501226 7.31869C-0.186298 8.71491 -0.0445035 10.1764 0.209472 12.7943C0.24575 13.1682 0.284318 13.5657 0.323085 13.9901H43.4175C43.4421 13.6799 43.4684 13.3738 43.4942 13.0726C43.696 10.7173 43.8718 8.66523 43.0461 7.38431Z" fill="white"/>
<path fill-rule="evenodd" clip-rule="evenodd" d="M3.67915 16.5864C4.3522 25.811 5.0179 35.0462 5.68362 44.2815L5.68402 44.2872C6.04548 49.3017 6.40695 54.3162 6.76959 59.3291H8.14463C8.23833 60.1137 8.34554 61.0825 8.45857 62.1038C8.68803 64.1771 8.94152 66.4675 9.15463 67.875H9.30671C10.7073 67.356 20.3898 63.1649 20.3941 46.4793C20.3923 46.4317 20.3939 46.3841 20.3988 46.3369H18.0067C17.8908 46.3358 17.7786 46.2966 17.6872 46.2254C17.5958 46.1543 17.5302 46.055 17.5007 45.9429C17.2676 45.3598 17.0796 44.7596 16.9385 44.1476C15.5312 44.9524 14.4137 46.1814 13.7452 47.6594C13.1106 46.1457 13.0275 44.4569 13.5105 42.8881C13.9935 41.3193 15.0118 39.9702 16.3875 39.0767C16.4052 34.2078 18.2054 29.5143 21.4473 25.8846L21.4979 25.8396C21.5921 25.7571 21.7128 25.7112 21.8379 25.7102C21.9102 25.7108 21.9817 25.7264 22.0477 25.7561C22.1145 25.7862 22.1743 25.83 22.2231 25.8846C25.5029 29.5192 27.2936 34.2579 27.238 39.1555C28.6394 40.0241 29.6784 41.3722 30.1623 42.9495C30.6461 44.5268 30.5419 46.2263 29.8691 47.7326C29.2041 46.2522 28.0857 45.0222 26.6758 44.2207C26.5896 44.8139 26.431 45.3941 26.2035 45.9485C26.1248 46.1849 25.9674 46.3369 25.81 46.3369H23.2589C23.2629 46.3652 23.2658 46.3936 23.2674 46.4221L23.2684 46.4287V46.4425C23.2693 46.467 23.2694 46.4916 23.2685 46.5163C23.3034 63.681 33.598 67.577 34.4657 67.875H34.7625C34.8383 66.523 35.085 64.6575 35.3255 62.8388C35.4912 61.5855 35.6539 60.3544 35.7558 59.3291H37.1468C37.592 53.0148 38.0499 46.7182 38.5078 40.4215L38.508 40.4181L38.5082 40.4163C39.0939 32.3621 39.6796 24.3076 40.2388 16.2157H3.76822C3.66324 16.2364 3.6704 16.4103 3.67915 16.5864ZM21.8379 25.7102L21.8352 25.7102H21.8408L21.8379 25.7102Z" fill="white"/>
</svg>
