<svg width="96" height="72" viewBox="0 0 96 72" fill="none" xmlns="http://www.w3.org/2000/svg">
<path d="M0.650879 10.2565C0.650879 7.97944 1.42553 6.21469 2.97485 4.96229C4.55233 3.68142 6.91856 3.04099 10.0735 3.04099C12.1581 3.04099 13.9327 3.24024 15.3975 3.63873V9.53071C13.8201 9.04683 12.2567 8.80489 10.7073 8.80489C9.18619 8.80489 8.20026 8.9899 7.74955 9.35993C7.29884 9.7015 7.07349 10.2138 7.07349 10.897V25.2427C7.07349 26.6089 8.12985 27.2921 10.2425 27.2921C12.3834 27.2921 14.144 27.0786 15.5243 26.6516V32.4155C14.0032 32.8425 12.1581 33.056 9.98902 33.056C6.83405 33.056 4.48191 32.4298 2.93259 31.1774C1.41145 29.925 0.650879 28.1602 0.650879 25.8831V10.2565Z" fill="white"/>
<path d="M27.8671 14.3126C27.8671 13.231 27.2756 12.6902 26.0924 12.6902C24.9093 12.6902 24.3178 13.231 24.3178 14.3126V26.182C24.3178 27.2636 24.9093 27.8044 26.0924 27.8044C27.2756 27.8044 27.8671 27.2636 27.8671 26.182V14.3126ZM18.0642 14.0991C18.0642 11.9359 18.7261 10.2565 20.0501 9.06106C21.4022 7.83712 23.4164 7.22516 26.0924 7.22516C28.7685 7.22516 30.7686 7.83712 32.0925 9.06106C33.4446 10.2565 34.1207 11.9359 34.1207 14.0991V26.3955C34.1207 28.5587 33.4446 30.2523 32.0925 31.4762C30.7686 32.6717 28.7685 33.2694 26.0924 33.2694C23.4164 33.2694 21.4022 32.6717 20.0501 31.4762C18.7261 30.2523 18.0642 28.5587 18.0642 26.3955V14.0991Z" fill="white"/>
<path d="M38.2276 7.35324C38.2276 2.54288 40.7347 0.137695 45.7488 0.137695C46.3967 0.137695 47.1714 0.208854 48.0728 0.351173V5.30386C47.6221 5.24693 47.1995 5.21847 46.8052 5.21847C45.3685 5.21847 44.6502 5.90159 44.6502 7.26785V7.65211H48.0728V12.6902H44.6502V32.8425H38.2276V12.6902H35.8191V7.65211H38.2276V7.35324Z" fill="white"/>
<path d="M50.6893 7.35324C50.6893 2.54288 53.1963 0.137695 58.2105 0.137695C58.8584 0.137695 59.633 0.208854 60.5344 0.351173V5.30386C60.0837 5.24693 59.6612 5.21847 59.2668 5.21847C57.8302 5.21847 57.1119 5.90159 57.1119 7.26785V7.65211H60.5344V12.6902H57.1119V32.8425H50.6893V12.6902H48.2808V7.65211H50.6893V7.35324Z" fill="white"/>
<path d="M62.01 25.6696V14.0991C62.01 11.9359 62.672 10.2565 63.996 9.06106C65.3199 7.83712 67.32 7.22516 69.996 7.22516C75.151 7.22516 77.7285 9.51648 77.7285 14.0991V22.7663H68.1369V25.1573C68.1369 26.0112 68.3622 26.6232 68.8129 26.9932C69.2918 27.3348 70.32 27.5055 71.8975 27.5055C73.5031 27.5055 75.2496 27.2209 77.137 26.6516V32.2874C75.1651 32.8282 73.0524 33.0986 70.7989 33.0986C64.9396 33.0986 62.01 30.6223 62.01 25.6696ZM68.1369 17.8563H71.8552V14.1845C71.8552 13.1029 71.2355 12.5621 69.996 12.5621C68.7566 12.5621 68.1369 13.1029 68.1369 14.1845V17.8563Z" fill="white"/>
<path d="M80.2486 25.6696V14.0991C80.2486 11.9359 80.9106 10.2565 82.2345 9.06106C83.5585 7.83712 85.5585 7.22516 88.2346 7.22516C93.3896 7.22516 95.9671 9.51648 95.9671 14.0991V22.7663H86.3755V25.1573C86.3755 26.0112 86.6008 26.6232 87.0515 26.9932C87.5304 27.3348 88.5586 27.5055 90.136 27.5055C91.7417 27.5055 93.4882 27.2209 95.3755 26.6516V32.2874C93.4037 32.8282 91.291 33.0986 89.0374 33.0986C83.1782 33.0986 80.2486 30.6223 80.2486 25.6696ZM86.3755 17.8563H90.0938V14.1845C90.0938 13.1029 89.4741 12.5621 88.2346 12.5621C86.9952 12.5621 86.3755 13.1029 86.3755 14.1845V17.8563Z" fill="white"/>
<path d="M10.8211 48.5632C10.8211 46.4613 9.72322 45.4103 7.52745 45.4103H4.02578V64.5729H7.52745C9.72322 64.5729 10.8211 63.4986 10.8211 61.35V48.5632ZM1.56421 43.2383H7.66613C9.5152 43.2383 10.9136 43.7171 11.8612 44.6746C12.8088 45.6322 13.2827 46.9167 13.2827 48.5282V61.42C13.2827 63.0782 12.8204 64.3861 11.8959 65.3436C10.9713 66.3012 9.58454 66.78 7.73547 66.78H1.56421V43.2383Z" fill="white"/>
<path d="M17.3336 61.7003V51.9613C17.3336 50.3031 17.7959 48.9836 18.7204 48.0027C19.6681 46.9984 21.0896 46.4963 22.9849 46.4963C24.8801 46.4963 26.2785 46.9984 27.1799 48.0027C28.1045 48.9836 28.5667 50.3031 28.5667 51.9613V58.0569H19.7605V61.5952C19.7605 62.6462 20.0841 63.4285 20.7313 63.9423C21.3785 64.4562 22.3839 64.7131 23.7476 64.7131C25.1113 64.7131 26.5212 64.5029 27.9773 64.0825V66.3946C26.8217 66.7683 25.4464 66.9551 23.8516 66.9551C19.5063 66.9551 17.3336 65.2035 17.3336 61.7003ZM19.7605 55.99H26.2092V51.9613C26.2092 49.766 25.1344 48.6683 22.9849 48.6683C20.8353 48.6683 19.7605 49.766 19.7605 51.9613V55.99Z" fill="white"/>
<path d="M32.7808 41.5567H35.2423V66.78H32.7808V41.5567Z" fill="white"/>
<path d="M41.2397 44.6045C40.2458 44.6045 39.7489 44.0674 39.7489 42.9931C39.7489 41.9187 40.2458 41.3816 41.2397 41.3816C42.2567 41.3816 42.7652 41.9187 42.7652 42.9931C42.7652 44.0674 42.2567 44.6045 41.2397 44.6045ZM40.0262 46.9867H42.4878V66.78H40.0262V46.9867Z" fill="white"/>
<path d="M55.1765 46.8466H57.6727L53.3043 66.78H49.8373L45.4689 46.8466H47.9998L49.9066 55.99L51.6055 65.0284C52.2989 61.1515 53.4892 55.0909 55.1765 46.8466Z" fill="white"/>
<path d="M60.2987 61.7003V51.9613C60.2987 50.3031 60.761 48.9836 61.6855 48.0027C62.6331 46.9984 64.0546 46.4963 65.9499 46.4963C67.8452 46.4963 69.2436 46.9984 70.145 48.0027C71.0695 48.9836 71.5318 50.3031 71.5318 51.9613V58.0569H62.7256V61.5952C62.7256 62.6462 63.0492 63.4285 63.6964 63.9423C64.3435 64.4562 65.349 64.7131 66.7127 64.7131C68.0763 64.7131 69.4862 64.5029 70.9424 64.0825V66.3946C69.7867 66.7683 68.4115 66.9551 66.8167 66.9551C62.4714 66.9551 60.2987 65.2035 60.2987 61.7003ZM62.7256 55.99H69.1742V51.9613C69.1742 49.766 68.0995 48.6683 65.9499 48.6683C63.8004 48.6683 62.7256 49.766 62.7256 51.9613V55.99Z" fill="white"/>
<path d="M82.1251 46.7415H82.9919V49.1237H81.8131C80.981 49.1237 80.2298 49.3456 79.5595 49.7893C79.3515 49.9295 78.9008 50.2447 78.2074 50.7352V66.78H75.7458V46.8466H78.1034V48.353C78.1727 48.3063 78.3461 48.1778 78.6234 47.9676C78.9239 47.7575 79.0973 47.6407 79.1435 47.6173C79.2128 47.5706 79.3631 47.4772 79.5942 47.3371C79.8484 47.1969 80.0333 47.1152 80.1489 47.0918C80.2876 47.0451 80.4725 46.9867 80.7036 46.9167C81.0503 46.7999 81.5241 46.7415 82.1251 46.7415Z" fill="white"/>
<path d="M93.5386 46.8466H96.0001L90.5916 71.9998H88.2341L89.3088 66.78H88.0954L83.7963 46.8466H86.2925L88.3727 56.7607L89.8982 65.0284C90.3605 62.2725 90.869 59.5166 91.4237 56.7607L93.5386 46.8466Z" fill="white"/>
</svg>
