<svg width="270" height="161" viewBox="0 0 270 161" fill="none" xmlns="http://www.w3.org/2000/svg">
<path d="M102.882 41.9505C98.0758 42.237 93.2684 42.4626 88.4598 42.6272C83.6513 42.8051 78.8418 42.9271 74.032 43.0382C69.2219 43.1314 64.4115 43.2125 59.5999 43.238C54.7886 43.2769 49.976 43.2539 45.1621 43.1691C49.9681 42.8815 54.7755 42.6554 59.5842 42.4909C64.3926 42.3132 69.2021 42.1913 74.0119 42.0813C78.8221 41.9893 83.6325 41.9082 88.4441 41.8829C93.2554 41.8445 98.068 41.867 102.882 41.9505Z" fill="#EBC136"/>
<path d="M64.1729 56.4295C59.3668 56.716 54.5594 56.9416 49.7507 57.1063C44.9424 57.2842 40.1328 57.4062 35.323 57.5172C30.5129 57.6104 25.7025 57.6916 20.8909 57.717C16.0796 57.756 11.267 57.7331 6.45312 57.6481C11.2592 57.3604 16.0665 57.1344 20.8752 56.9699C25.6836 56.7922 30.4931 56.6703 35.3029 56.5604C40.1131 56.4684 44.9235 56.3872 49.7351 56.362C54.5464 56.3235 59.359 56.3459 64.1729 56.4295Z" fill="#EBC136"/>
<path d="M80.7178 72.6326C75.9117 72.9191 71.1043 73.1447 66.2957 73.3095C61.4873 73.4874 56.6777 73.6093 51.868 73.7203C47.0578 73.8135 42.2474 73.8948 37.4358 73.9201C32.6246 73.9592 27.812 73.9362 22.998 73.8513C27.8041 73.5636 32.6115 73.3375 37.4201 73.173C42.2285 72.9953 47.038 72.8734 51.8479 72.7635C56.658 72.6715 61.4685 72.5903 66.2801 72.5652C71.0913 72.5266 75.9039 72.5491 80.7178 72.6326Z" fill="#EBC136"/>
<path d="M255.552 154H34.4477C34.329 154 34.2151 153.947 34.1311 153.854C34.0472 153.76 34 153.633 34 153.5C34 153.367 34.0472 153.24 34.1311 153.146C34.2151 153.053 34.329 153 34.4477 153H255.552C255.671 153 255.785 153.053 255.869 153.146C255.953 153.24 256 153.367 256 153.5C256 153.633 255.953 153.76 255.869 153.854C255.785 153.947 255.671 154 255.552 154Z" fill="#8C8686"/>
<path d="M136.203 8.86762C137.654 8.63362 139.14 8.74839 140.539 9.20246C141.194 9.42894 143.592 10.2572 144.776 12.5135C145.226 13.3704 145.335 14.4049 145.553 16.474C145.689 17.7664 146.194 18.6885 146.207 20.266C146.192 21.5444 145.993 22.814 145.617 24.0358C145.054 25.9478 145.436 27.0281 145.151 27.387C143.999 28.8337 140.455 27.7367 140.418 29.6119C140.395 30.7698 142.388 35.7506 142.36 37.107C142.294 40.268 136.996 37.0058 133.803 32.319C133.658 32.1063 131.492 30.8613 131.7 28.8119C131.811 27.7171 132.695 22.577 132.6 21.9156C132.258 19.525 131.051 19.2434 130.077 16.3584C129.813 15.6342 129.739 14.8544 129.863 14.0935C129.987 13.3327 130.303 12.6164 130.783 12.0133C132.165 10.3607 134.084 9.24723 136.203 8.86762Z" fill="#D19E8A"/>
<path d="M138.09 27.1897C139.684 28.2914 142.739 28.2173 142.739 28.2173L142.749 28.2885C141.562 28.4433 140.438 28.5602 140.418 29.6119C140.474 30.2003 140.599 30.78 140.79 31.3392C138.704 30.1624 138.09 27.1897 138.09 27.1897Z" fill="#B5806D"/>
<path fill-rule="evenodd" clip-rule="evenodd" d="M133.815 17.8811C133.996 17.8041 134.199 17.792 134.389 17.8469C134.238 17.9331 134.095 18.0325 133.961 18.1439C133.901 18.1935 133.843 18.2447 133.786 18.2973C133.895 18.3881 133.989 18.4968 134.064 18.6191C134.175 18.7954 134.25 18.9921 134.285 19.1978C134.326 19.4012 134.323 19.6109 134.277 19.8131C134.23 20.0153 134.141 20.2052 134.016 20.3703C134.001 19.9996 133.963 19.63 133.904 19.2637C133.847 18.9682 133.776 18.6756 133.692 18.3868C133.662 18.4153 133.634 18.4442 133.605 18.4735C133.537 18.5363 133.474 18.6052 133.411 18.6754C133.362 18.7282 133.314 18.7817 133.262 18.8338C133.142 18.9691 133.014 19.097 132.879 19.2168C132.885 19.027 132.93 18.8404 133.009 18.668C133.089 18.4946 133.198 18.3363 133.332 18.2002C133.469 18.0615 133.633 17.9529 133.815 17.8811Z" fill="#B5806D"/>
<path d="M137.004 22.5972C137.004 22.5972 136.171 19.1287 136.31 18.1325C136.503 16.7443 136.6 16.0502 136.429 15.4874C136.156 14.5866 136.594 14.4652 137.151 13.4898C137.674 12.5744 139.324 13.2977 139.733 13.1423C140.88 12.7063 140.834 12.2213 141.612 12.1661C142.409 12.1096 142.993 11.8934 143.513 12.4047C144.044 12.9266 145.021 14.3177 145.257 14.0729C145.753 13.3995 146.054 12.6024 146.127 11.7689C146.126 10.948 145.925 10.1397 145.542 9.4141C145.349 8.99466 144.632 7.43377 143.164 7.02797C142.318 6.79421 142.16 7.20255 140.335 7.32633C138.443 7.45478 138.381 7.03138 137.392 7.32204C136.297 7.64385 136.343 8.17121 134.476 9.21318C133.857 9.54765 133.221 9.8482 132.569 10.1135C130.223 11.1321 129.914 10.9751 129.377 11.5037C128.219 12.6435 128.426 14.5843 128.476 15.0531C128.617 16.3734 129.136 16.7661 130.274 18.8734C132.077 22.2105 131.733 23.6221 132.388 24.0866C132.709 24.3145 134.382 23.1019 134.369 22.5115C134.352 21.7377 133.793 21.4982 133.128 20.3851C132.663 19.6072 131.996 18.4904 132.366 17.4697C132.59 16.8526 132.847 17.0187 133.484 17.0724C134.348 17.1452 134.783 18.3464 135.137 19.2276C135.392 19.8654 135.506 20.5512 135.47 21.2374C135.392 22.7684 137.307 23.2039 137.004 22.5972Z" fill="#2E2C33"/>
<path d="M145.076 19.1117C145.344 19.1094 145.559 18.837 145.556 18.5032C145.553 18.1695 145.333 17.9008 145.065 17.9031C144.797 17.9054 144.582 18.1778 144.585 18.5115C144.588 18.8453 144.808 19.114 145.076 19.1117Z" fill="#0A0709"/>
<path d="M140.701 19.1498C140.969 19.1475 141.184 18.8751 141.181 18.5413C141.178 18.2076 140.958 17.9389 140.69 17.9412C140.422 17.9435 140.207 18.2159 140.21 18.5496C140.213 18.8834 140.433 19.1521 140.701 19.1498Z" fill="#0A0709"/>
<path d="M142.755 17.4459C142.814 17.4454 142.871 17.4276 142.921 17.3948C143.348 17.0936 143.857 16.9289 144.38 16.9224C144.902 16.9158 145.415 17.0677 145.85 17.3581C145.915 17.4061 145.997 17.4262 146.077 17.4141C146.157 17.4019 146.229 17.3584 146.278 17.2931C146.326 17.2279 146.346 17.1461 146.334 17.0658C146.322 16.9855 146.279 16.9132 146.214 16.8648C145.676 16.5057 145.042 16.3156 144.396 16.3189C143.749 16.3222 143.117 16.5186 142.583 16.8832C142.527 16.9197 142.486 16.9731 142.463 17.0354C142.441 17.0978 142.439 17.1656 142.459 17.2289C142.478 17.2922 142.517 17.3475 142.571 17.3867C142.624 17.4258 142.689 17.4465 142.755 17.4459Z" fill="#494752"/>
<path d="M138.22 17.4845C138.279 17.4839 138.336 17.4662 138.386 17.4334C138.814 17.1354 139.322 16.9726 139.844 16.9659C140.366 16.9592 140.878 17.1088 141.315 17.3956C141.347 17.4196 141.384 17.437 141.423 17.4468C141.462 17.4565 141.502 17.4585 141.542 17.4526C141.582 17.4467 141.62 17.433 141.654 17.4123C141.689 17.3917 141.719 17.3644 141.743 17.332C141.767 17.2997 141.784 17.263 141.794 17.2239C141.804 17.1849 141.806 17.1443 141.8 17.1045C141.794 17.0647 141.78 17.0264 141.76 16.9919C141.739 16.9574 141.712 16.9273 141.679 16.9033C141.141 16.5442 140.508 16.3542 139.861 16.3575C139.214 16.3607 138.582 16.5572 138.047 16.9217C137.992 16.9583 137.95 17.0117 137.928 17.074C137.906 17.1363 137.904 17.2042 137.924 17.2675C137.943 17.3308 137.982 17.3861 138.036 17.4252C138.089 17.4643 138.153 17.4851 138.22 17.4845Z" fill="#494752"/>
<path d="M142.338 17.5742C142.179 18.0849 142.204 18.6352 142.407 19.1298C142.584 19.627 142.838 20.0931 143.16 20.5108L143.416 20.7974C143.447 20.8257 143.473 20.86 143.491 20.8982C143.508 20.9364 143.518 20.9778 143.52 21.02C143.501 21.2269 143.402 21.418 143.243 21.5518C142.853 21.8453 142.367 21.9813 141.881 21.9329C142.133 22.0339 142.406 22.0731 142.677 22.0471C142.947 22.0212 143.208 21.931 143.436 21.7839C143.562 21.6973 143.668 21.5842 143.746 21.4523C143.823 21.3205 143.871 21.1732 143.886 21.0208C143.887 20.8478 143.823 20.6808 143.705 20.5537L143.458 20.2642C143.156 19.8731 142.896 19.4514 142.681 19.006C142.447 18.5657 142.329 18.0729 142.338 17.5742Z" fill="#B5806D"/>
<path d="M140.893 24.0773C140.893 24.0773 142.819 25.8461 144.513 24.0464L140.893 24.0773Z" fill="#9D6D5C"/>
<path d="M141.323 33.0703C141.323 33.0703 144.709 42.8732 131.763 28.311L126.139 32.9881C124.973 33.9741 124.169 35.3211 123.854 36.816C123.579 38.9368 123.303 41.0576 123.027 43.1784C121.98 51.2413 121.973 59.4057 123.006 67.4704C123.285 69.6454 123.563 71.8204 123.842 73.9955L148.027 77.3209C146.667 72.6567 145.863 67.8473 145.634 62.9936C145.362 57.1839 146.08 54.712 145.806 49.8932C145.428 44.0454 143.905 38.3291 141.323 33.0703Z" fill="#FFBA55"/>
<path d="M144.851 72.1892C144.413 71.9377 143.966 71.7098 143.527 71.4706L142.235 70.7096C141.394 70.1797 140.591 69.5925 139.83 68.9522C139.068 68.3187 138.379 67.6024 137.776 66.8164C137.478 66.4202 137.212 66.0004 136.982 65.5612C136.737 65.1254 136.551 64.659 136.428 64.1742C136.567 65.1869 136.946 66.1517 137.533 66.9881C138.105 67.8341 138.794 68.5946 139.579 69.2468C140.356 69.9012 141.195 70.4769 142.085 70.9654L143.442 71.6395C143.914 71.823 144.378 72.0178 144.851 72.1892Z" fill="#E6952A"/>
<path d="M132.518 39.238C132.518 39.238 133.613 36.6237 147.949 57.2421L142.502 64.3214C142.502 64.3214 134.593 57.8043 131.011 52.1781" fill="#FFBA55"/>
<path d="M132.518 39.238C132.586 39.1202 132.74 39.12 132.861 39.1321C132.986 39.1557 133.108 39.191 133.227 39.2376C133.455 39.3471 133.674 39.475 133.882 39.6202C134.094 39.7584 134.296 39.911 134.487 40.0769C134.678 40.2409 134.884 40.3911 135.064 40.5678C135.811 41.2455 136.518 41.9656 137.205 42.7028C138.575 44.1815 139.838 45.7498 141.104 47.3139C142.36 48.8854 143.574 50.4901 144.762 52.1121C145.97 53.7207 147.102 55.3816 148.274 57.0155L148.442 57.2509L145.532 61.0188L142.555 64.8398L142.273 64.5998C141.199 63.6854 140.161 62.7474 139.15 61.7733C138.139 60.8012 137.146 59.8112 136.184 58.7902C135.223 57.7698 134.29 56.7202 133.42 55.6192C132.54 54.5281 131.735 53.3785 131.011 52.1781C131.824 53.3125 132.699 54.4021 133.629 55.4424C134.562 56.4786 135.538 57.4743 136.52 58.461C137.511 59.4411 138.532 60.3895 139.57 61.3189C140.612 62.2413 141.66 63.1649 142.731 64.0428L142.216 64.1011L144.918 60.5447L147.635 57.0002L147.624 57.4686C146.47 55.8283 145.333 54.175 144.161 52.5481C143.007 50.9084 141.816 49.2959 140.632 47.6789C139.43 46.0763 138.218 44.4779 136.922 42.9527C136.283 42.1824 135.624 41.4292 134.923 40.7166C134.755 40.5303 134.562 40.373 134.382 40.1996C134.203 40.0262 134.013 39.8641 133.814 39.7143C133.622 39.5564 133.417 39.4144 133.202 39.2899C133.091 39.2364 132.975 39.1932 132.856 39.1608C132.742 39.1408 132.595 39.1272 132.518 39.238Z" fill="#E6952A"/>
<path d="M169.703 112.137L170.998 118.704L183.689 120.751L166.719 125.911L163.146 114.131L169.703 112.137Z" fill="#D19E8A"/>
<path d="M185.569 120.812L185.557 120.773C185.467 120.475 185.295 120.208 185.062 120.002C184.829 119.796 184.544 119.658 184.237 119.605L171.011 117.304C170.882 117.281 170.748 117.305 170.635 117.371C170.521 117.437 170.434 117.54 170.389 117.664L169.053 121.334C169.006 121.464 168.912 121.572 168.79 121.637C168.667 121.702 168.525 121.72 168.391 121.686L165.28 120.905C165.184 120.881 165.083 120.883 164.988 120.91C164.893 120.938 164.807 120.99 164.738 121.062C164.67 121.134 164.622 121.223 164.599 121.319C164.576 121.416 164.579 121.517 164.608 121.612L166.156 126.715C166.199 126.858 166.297 126.977 166.428 127.047C166.559 127.117 166.712 127.132 166.854 127.089L185.196 121.511C185.338 121.468 185.457 121.37 185.527 121.239C185.597 121.108 185.612 120.954 185.569 120.812Z" fill="#251D1B"/>
<path d="M123.38 69.2183C123.38 69.2183 119.515 86.3722 126.901 86.0647H154.979L162.543 116.637C162.543 116.637 165.452 117.825 167.976 117.295C169.711 116.932 171.205 115.275 172.244 114.428C172.244 114.428 166.718 70.5985 156.264 69.2675C143.224 67.6072 123.38 69.2183 123.38 69.2183Z" fill="#808B49"/>
<path d="M154.979 86.0647C155.626 85.251 156.205 84.3846 156.708 83.4747C156.943 83.0253 157.184 82.5764 157.395 82.1026C157.617 81.6327 157.808 81.1457 158.065 80.6461C158.136 81.1971 158.109 81.7565 157.985 82.2981C157.871 82.8449 157.676 83.3715 157.406 83.8602C157.136 84.3518 156.792 84.7984 156.386 85.1839C155.991 85.5817 155.509 85.8831 154.979 86.0647Z" fill="#5E7C24"/>
<path d="M175.325 69.1417C179.94 69.1417 179.948 61.9595 175.325 61.9595C170.71 61.9595 170.703 69.1417 175.325 69.1417Z" fill="#6F56A5"/>
<path d="M147.788 57.6431L169.359 60.523C169.359 60.523 178.169 57.2491 179.963 61.8921C180.2 62.5333 180.207 63.2372 179.983 63.883C179.445 65.4981 178.173 68.6871 177.241 66.0263L176.283 63.2904C176.283 63.2904 172.976 65.5834 169.782 64.4464C168.627 64.0355 153.179 67.0487 144.851 65.0144L142.502 64.3215L147.788 57.6431Z" fill="#D19E8A"/>
<path d="M104.412 153.328C114.733 153.328 123.1 144.926 123.1 134.562C123.1 124.198 114.733 115.796 104.412 115.796C94.09 115.796 85.7227 124.198 85.7227 134.562C85.7227 144.926 94.09 153.328 104.412 153.328Z" fill="#1E1D22"/>
<path fill-rule="evenodd" clip-rule="evenodd" d="M114.111 134.562C114.111 139.941 109.769 144.302 104.412 144.302C99.0554 144.302 94.7129 139.941 94.7129 134.562C94.7129 129.184 99.0554 124.823 104.412 124.823C109.769 124.823 114.111 129.184 114.111 134.562ZM104.043 137.002C105.872 137.002 105.875 134.156 104.043 134.156C102.214 134.156 102.211 137.002 104.043 137.002Z" fill="#848384"/>
<path d="M205.812 153.328C216.134 153.328 224.501 144.926 224.501 134.562C224.501 124.198 216.134 115.796 205.812 115.796C195.49 115.796 187.123 124.198 187.123 134.562C187.123 144.926 195.49 153.328 205.812 153.328Z" fill="#1E1D22"/>
<path fill-rule="evenodd" clip-rule="evenodd" d="M215.512 134.562C215.512 139.941 211.169 144.302 205.813 144.302C200.456 144.302 196.113 139.941 196.113 134.562C196.113 129.184 200.456 124.823 205.813 124.823C211.169 124.823 215.512 129.184 215.512 134.562ZM205.444 138.452C209.136 138.452 209.142 132.706 205.444 132.706C201.752 132.706 201.746 138.452 205.444 138.452Z" fill="#848384"/>
<path d="M178.168 59.8049L190.812 53.7656L191.46 67.6038L179.303 63.6636L178.168 59.8049Z" fill="#8E6CD8"/>
<path d="M191.394 67.6065C192.579 67.5508 193.395 64.4079 193.215 60.5866C193.036 56.7653 191.931 53.7126 190.745 53.7683C189.56 53.824 188.745 56.967 188.924 60.7883C189.103 64.6096 190.209 67.6622 191.394 67.6065Z" fill="#FFBA55"/>
<path d="M190.745 53.7683C190.598 53.8104 190.461 53.8846 190.345 53.9855C190.229 54.0864 190.136 54.2116 190.074 54.3523C189.927 54.6214 189.814 54.9075 189.737 55.2041C189.576 55.8029 189.465 56.414 189.404 57.0311C189.177 59.5196 189.295 62.0275 189.755 64.4837C189.873 65.0923 190.04 65.6902 190.257 66.2713C190.361 66.5594 190.5 66.8336 190.671 67.0877C190.746 67.2219 190.85 67.3379 190.975 67.4276C191.1 67.5172 191.243 67.5783 191.394 67.6065C191.227 67.6176 191.06 67.5897 190.906 67.5249C190.751 67.4602 190.614 67.3605 190.505 67.2336C190.27 66.9988 190.068 66.733 189.905 66.4436C189.587 65.8716 189.334 65.2654 189.152 64.6366C188.439 62.1319 188.316 59.496 188.792 56.9357C188.914 56.2926 189.109 55.6655 189.373 55.0662C189.508 54.7627 189.684 54.4792 189.896 54.2233C189.992 54.0868 190.12 53.9746 190.267 53.8957C190.415 53.8167 190.578 53.7731 190.745 53.7683Z" fill="#E6952A"/>
<path d="M229.706 132.424C229.706 132.424 212.673 123.873 182.392 135.275H128.304C128.304 135.275 110.325 146.677 80.0445 138.125C80.0445 138.125 76.2595 131.474 85.7222 117.221C85.7222 117.221 91.3998 101.069 95.1849 98.2182L147.363 98.2455C147.363 98.2455 146.145 124.624 165.07 126.525C183.996 128.425 182.103 110.372 182.103 110.372L179.598 70.4177C179.555 67.884 179.382 65.3541 179.081 62.8379C178.737 59.9039 177.743 60.3119 178.926 60.9057C180.818 61.8559 199.425 82.0653 203.21 110.57C203.21 110.57 224.974 107.72 229.706 132.424Z" fill="#8E6CD8"/>
<path d="M93.1132 98.9704H144.749C147.885 98.9704 150.427 96.0811 150.427 92.5177C150.427 88.9542 147.885 86.0649 144.749 86.0649H93.1132C89.9777 86.0649 87.4355 88.9542 87.4355 92.5177C87.4355 96.0811 89.9777 98.9704 93.1132 98.9704Z" fill="#6F56A5"/>
<path d="M128.305 135.275C129.984 132.702 131.296 129.907 132.203 126.971C133.087 124.076 133.464 120.984 132.776 118.12C132.05 115.259 130.299 112.764 127.855 111.111C127.705 111.004 127.565 110.885 127.408 110.788L126.935 110.496C126.618 110.305 126.314 110.093 125.986 109.918C125.315 109.59 124.682 109.208 123.971 108.938L122.929 108.499C122.592 108.359 122.249 108.236 121.9 108.131C121.194 107.911 120.468 107.73 119.736 107.575C116.786 106.957 113.765 106.752 110.758 106.967C109.25 107.067 107.75 107.256 106.264 107.535C104.777 107.816 103.311 108.203 101.853 108.628C96.0226 110.541 90.5654 113.448 85.7227 117.221L87.448 115.672L89.254 114.213L91.1238 112.829C91.7686 112.398 92.4064 111.953 93.0605 111.532C95.7061 109.87 98.5235 108.5 101.463 107.445C104.43 106.402 107.515 105.735 110.647 105.459C113.798 105.196 116.971 105.383 120.069 106.015C120.844 106.185 121.613 106.383 122.377 106.628C122.753 106.75 123.152 106.886 123.522 107.048L124.607 107.516C125.338 107.801 126.031 108.219 126.74 108.576C127.09 108.767 127.42 108.999 127.761 109.208C128.106 109.414 128.436 109.645 128.748 109.898C131.429 111.798 133.299 114.637 133.986 117.853C134.292 119.433 134.335 121.052 134.112 122.645C133.892 124.21 133.499 125.744 132.939 127.221C132.377 128.677 131.703 130.087 130.924 131.439C130.16 132.789 129.284 134.072 128.305 135.275Z" fill="#6F56A5"/>
<path d="M122.06 114.428C121.2 115.441 120.233 116.358 119.175 117.162C118.124 117.979 117.018 118.723 115.865 119.389C115.301 119.746 114.703 120.037 114.113 120.345C113.526 120.662 112.915 120.925 112.31 121.204C112.008 121.344 111.702 121.475 111.397 121.607L110.464 121.962C109.839 122.189 109.224 122.447 108.591 122.648C106.064 123.47 103.471 124.069 100.841 124.439C99.5351 124.655 98.2062 124.709 96.8936 124.827C95.5718 124.868 94.2498 124.87 92.9336 124.822C94.2247 124.516 95.5158 124.306 96.7966 124.049L98.7094 123.634C99.3456 123.496 99.9862 123.39 100.613 123.215C101.243 123.054 101.873 122.898 102.505 122.757C103.14 122.628 103.754 122.415 104.379 122.247C104.998 122.061 105.634 121.935 106.245 121.724L108.09 121.133C108.71 120.95 109.309 120.711 109.92 120.502L110.831 120.175C111.129 120.053 111.426 119.928 111.728 119.814C112.94 119.367 114.11 118.821 115.288 118.29C115.87 118.01 116.459 117.739 117.029 117.434L117.895 116.99L118.742 116.514C119.888 115.884 120.996 115.187 122.06 114.428Z" fill="#6F56A5"/>
<path d="M124.273 120.695C123.413 121.709 122.446 122.626 121.388 123.43C120.337 124.247 119.231 124.991 118.078 125.656C117.514 126.014 116.916 126.304 116.326 126.612C115.739 126.93 115.128 127.193 114.523 127.471C114.221 127.612 113.915 127.742 113.609 127.875L112.677 128.229C112.052 128.456 111.437 128.715 110.803 128.916C108.277 129.737 105.684 130.337 103.054 130.707C101.748 130.923 100.419 130.977 99.1065 131.095C97.7847 131.136 96.4627 131.137 95.1465 131.09C96.4376 130.784 97.7287 130.574 99.0094 130.317L100.922 129.902C101.559 129.764 102.199 129.657 102.826 129.482C103.456 129.321 104.086 129.166 104.718 129.025C105.353 128.895 105.967 128.683 106.591 128.515C107.211 128.329 107.847 128.203 108.458 127.991L110.303 127.401C110.922 127.217 111.522 126.978 112.133 126.77L113.044 126.443C113.342 126.321 113.639 126.196 113.941 126.081C115.153 125.634 116.323 125.089 117.501 124.558C118.083 124.278 118.672 124.006 119.242 123.701L120.108 123.258L120.955 122.781C122.101 122.151 123.208 121.455 124.273 120.695Z" fill="#6F56A5"/>
<path d="M185.629 68.4112C185.038 67.8924 184.496 67.3472 183.963 66.7971L182.382 65.1478C181.864 64.5961 181.335 64.0574 180.79 63.5466C180.52 63.2915 180.234 63.0533 179.935 62.8334C179.642 62.5993 179.295 62.4426 178.926 62.3776C179.324 62.2806 179.743 62.319 180.117 62.4866C180.49 62.6367 180.844 62.828 181.175 63.0569C181.821 63.5061 182.419 64.0221 182.958 64.5965C183.493 65.1623 183.988 65.7649 184.439 66.3999C184.899 67.0308 185.297 67.7044 185.629 68.4112Z" fill="#6F56A5"/>
<path d="M203.211 110.57C200.418 111.296 197.753 112.446 195.308 113.98C194.108 114.734 192.972 115.585 191.91 116.524C190.843 117.448 189.867 118.472 188.995 119.582C188.101 120.677 187.305 121.849 186.616 123.083C186.426 123.383 186.271 123.702 186.106 124.016C185.947 124.334 185.766 124.641 185.625 124.968C185.342 125.62 185.025 126.26 184.775 126.931C183.738 129.636 182.941 132.429 182.393 135.274C182.322 132.309 182.73 129.351 183.602 126.516C184.468 123.63 185.877 120.936 187.755 118.58C190.608 115.051 194.48 112.491 198.842 111.251C200.263 110.838 201.731 110.609 203.211 110.57Z" fill="#6F56A5"/>
<path d="M114.142 84.5238H95.4022L91.1758 80.0736C91.1128 80.0043 91.0356 79.9496 90.9494 79.913C90.8633 79.8764 90.7703 79.8589 90.6768 79.8616C90.5833 79.8643 90.4914 79.8872 90.4076 79.9288C90.3237 79.9703 90.2498 80.0295 90.1909 80.1023C90.0628 80.257 89.9949 80.4528 89.9997 80.6537C90.0044 80.8546 90.0815 81.047 90.2167 81.1955L93.3775 84.5238H88.3354V81.0117C88.3455 80.914 88.3349 80.8153 88.3045 80.722C88.274 80.6287 88.2243 80.5428 88.1587 80.4699C88.093 80.397 88.0128 80.3388 87.9232 80.2989C87.8336 80.259 87.7367 80.2384 87.6386 80.2384C87.5406 80.2384 87.4436 80.259 87.3541 80.2989C87.2645 80.3388 87.1843 80.397 87.1186 80.4699C87.0529 80.5428 87.0032 80.6287 86.9728 80.722C86.9423 80.8153 86.9318 80.914 86.9418 81.0117V84.5239H83.4995C83.3084 84.5435 83.1314 84.6334 83.0027 84.7762C82.874 84.919 82.8027 85.1046 82.8027 85.297C82.8027 85.4893 82.874 85.6749 83.0027 85.8177C83.1314 85.9605 83.3084 86.0504 83.4995 86.0701H86.9418V89.5822C86.9318 89.6799 86.9423 89.7786 86.9728 89.8719C87.0032 89.9652 87.0529 90.0511 87.1186 90.124C87.1843 90.1969 87.2645 90.2551 87.3541 90.295C87.4436 90.3349 87.5406 90.3555 87.6386 90.3555C87.7367 90.3555 87.8336 90.3349 87.9232 90.295C88.0128 90.2551 88.093 90.1969 88.1587 90.124C88.2243 90.0511 88.274 89.9652 88.3045 89.8719C88.3349 89.7786 88.3455 89.6799 88.3354 89.5822V86.0701H94.8459L98.3564 89.7665C98.4195 89.8357 98.4967 89.8904 98.5828 89.927C98.6689 89.9635 98.7619 89.9811 98.8554 89.9783C98.949 89.9756 99.0408 89.9527 99.1247 89.9112C99.2085 89.8697 99.2824 89.8105 99.3414 89.7378C99.4694 89.5831 99.5373 89.3872 99.5325 89.1863C99.5278 88.9854 99.4507 88.793 99.3155 88.6446L96.8706 86.07H114.142C114.333 86.0504 114.51 85.9605 114.639 85.8176C114.767 85.6748 114.839 85.4893 114.839 85.2969C114.839 85.1046 114.767 84.919 114.639 84.7762C114.51 84.6334 114.333 84.5435 114.142 84.5238Z" fill="#464646"/>
<path d="M87.6665 85.8053C87.8091 85.8004 87.9442 85.7402 88.0433 85.6374C88.1425 85.5347 88.1979 85.3973 88.1979 85.2544C88.1979 85.1116 88.1425 84.9743 88.0433 84.8715C87.9442 84.7687 87.8091 84.7085 87.6665 84.7036C87.5239 84.7085 87.3888 84.7687 87.2896 84.8715C87.1905 84.9743 87.1351 85.1116 87.1351 85.2544C87.1351 85.3973 87.1905 85.5347 87.2896 85.6374C87.3888 85.7402 87.5239 85.8004 87.6665 85.8053Z" fill="#616161"/>
<path d="M87.6665 89.9453C87.8091 89.9403 87.9442 89.8801 88.0433 89.7774C88.1425 89.6746 88.1979 89.5373 88.1979 89.3944C88.1979 89.2515 88.1425 89.1142 88.0433 89.0115C87.9442 88.9087 87.8091 88.8485 87.6665 88.8436C87.5239 88.8485 87.3888 88.9087 87.2896 89.0115C87.1905 89.1142 87.1351 89.2515 87.1351 89.3944C87.1351 89.5373 87.1905 89.6746 87.2896 89.7774C87.3888 89.8801 87.5239 89.9403 87.6665 89.9453Z" fill="#616161"/>
<path d="M90.802 81.3C90.9446 81.2951 91.0798 81.2349 91.1789 81.1321C91.2781 81.0294 91.3335 80.8921 91.3335 80.7492C91.3335 80.6063 91.2781 80.469 91.1789 80.3662C91.0798 80.2634 90.9446 80.2032 90.802 80.1983C90.6594 80.2032 90.5243 80.2634 90.4252 80.3662C90.326 80.469 90.2706 80.6063 90.2706 80.7492C90.2706 80.8921 90.326 81.0294 90.4252 81.1321C90.5243 81.2349 90.6594 81.2951 90.802 81.3Z" fill="#616161"/>
<path d="M87.6665 81.6769C87.8091 81.672 87.9442 81.6118 88.0433 81.509C88.1424 81.4062 88.1978 81.2689 88.1978 81.1261C88.1978 80.9832 88.1424 80.8459 88.0433 80.7431C87.9442 80.6404 87.8091 80.5802 87.6665 80.5752C87.5239 80.5802 87.3888 80.6404 87.2897 80.7431C87.1905 80.8459 87.1351 80.9832 87.1351 81.1261C87.1351 81.2689 87.1905 81.4062 87.2897 81.509C87.3888 81.6118 87.5239 81.672 87.6665 81.6769Z" fill="#616161"/>
<path d="M94.8156 85.8053C94.9582 85.8004 95.0933 85.7402 95.1925 85.6374C95.2916 85.5347 95.347 85.3973 95.347 85.2544C95.347 85.1116 95.2916 84.9743 95.1925 84.8715C95.0933 84.7687 94.9582 84.7085 94.8156 84.7036C94.673 84.7085 94.5379 84.7687 94.4387 84.8715C94.3396 84.9743 94.2842 85.1116 94.2842 85.2544C94.2842 85.3973 94.3396 85.5347 94.4387 85.6374C94.5379 85.7402 94.673 85.8004 94.8156 85.8053Z" fill="#616161"/>
<path d="M98.7378 85.6591C98.8805 85.6542 99.0156 85.594 99.1147 85.4912C99.2139 85.3885 99.2693 85.2512 99.2693 85.1083C99.2693 84.9654 99.2139 84.8281 99.1147 84.7253C99.0156 84.6225 98.8805 84.5623 98.7378 84.5574C98.5952 84.5623 98.4601 84.6225 98.361 84.7253C98.2618 84.8281 98.2064 84.9654 98.2064 85.1083C98.2064 85.2512 98.2618 85.3885 98.361 85.4912C98.4601 85.594 98.5952 85.6542 98.7378 85.6591Z" fill="#616161"/>
<path d="M98.7378 89.6902C98.8805 89.6852 99.0156 89.6251 99.1147 89.5223C99.2139 89.4195 99.2693 89.2822 99.2693 89.1393C99.2693 88.9964 99.2139 88.8591 99.1147 88.7564C99.0156 88.6536 98.8805 88.5934 98.7378 88.5885C98.5952 88.5934 98.4601 88.6536 98.361 88.7564C98.2618 88.8591 98.2064 88.9964 98.2064 89.1393C98.2064 89.2822 98.2618 89.4195 98.361 89.5223C98.4601 89.6251 98.5952 89.6852 98.7378 89.6902Z" fill="#616161"/>
<path d="M83.862 85.8053C84.0046 85.8004 84.1397 85.7402 84.2389 85.6374C84.338 85.5347 84.3934 85.3973 84.3934 85.2544C84.3934 85.1116 84.338 84.9743 84.2389 84.8715C84.1397 84.7687 84.0046 84.7085 83.862 84.7036C83.7194 84.7085 83.5843 84.7687 83.4851 84.8715C83.386 84.9743 83.3306 85.1116 83.3306 85.2544C83.3306 85.3973 83.386 85.5347 83.4851 85.6374C83.5843 85.7402 83.7194 85.8004 83.862 85.8053Z" fill="#616161"/>
<path d="M113.545 85.8053C113.688 85.8004 113.823 85.7402 113.922 85.6374C114.021 85.5347 114.077 85.3973 114.077 85.2544C114.077 85.1116 114.021 84.9743 113.922 84.8715C113.823 84.7687 113.688 84.7085 113.545 84.7036C113.403 84.7085 113.268 84.7687 113.169 84.8715C113.069 84.9743 113.014 85.1116 113.014 85.2544C113.014 85.3973 113.069 85.5347 113.169 85.6374C113.268 85.7402 113.403 85.8004 113.545 85.8053Z" fill="#616161"/>
<path d="M112.945 84.5101H84.5312C84.1212 84.5101 83.728 84.347 83.4381 84.0567C83.1482 83.7664 82.9854 83.3726 82.9854 82.9621V62.1224H114.49V82.9621C114.49 83.3726 114.327 83.7664 114.038 84.0567C113.748 84.347 113.354 84.5101 112.945 84.5101Z" fill="#584432"/>
<path d="M102.35 68.5705C102.249 68.4147 102.1 68.4102 101.931 68.4051C101.911 68.4045 101.892 68.4039 101.872 68.4031C101.857 68.4024 101.841 68.4027 101.823 68.403C101.755 68.4041 101.674 68.4053 101.634 68.3476C101.587 68.2807 101.592 68.1514 101.595 68.0446C101.596 68.0109 101.597 67.9794 101.597 67.9529C101.59 67.7049 101.576 67.4414 101.481 67.3534C101.409 67.2873 101.193 67.2965 100.994 67.3049C100.929 67.3076 100.866 67.3103 100.811 67.3103H96.5722C96.4868 67.3103 96.3974 67.3033 96.3095 67.2965C96.1382 67.2832 95.9729 67.2704 95.8555 67.3103C95.6851 67.3685 95.6735 67.6746 95.6627 67.9627L95.6621 67.9782C95.6529 68.2161 95.594 68.3997 95.3987 68.3812C95.1714 68.36 94.9454 68.3533 94.8426 68.559C94.7213 68.8024 94.7463 69.0571 94.7912 69.5134C94.7976 69.5785 94.8044 69.6478 94.8112 69.7218H102.416C102.42 69.6677 102.425 69.6144 102.429 69.5619C102.465 69.1514 102.496 68.7937 102.35 68.5705Z" fill="#785A3F"/>
<path fill-rule="evenodd" clip-rule="evenodd" d="M95.4034 70.1743C95.5222 71.7821 95.6397 73.3917 95.7571 75.0013C95.8209 75.8753 95.8848 76.7503 95.9488 77.624H96.1914C96.208 77.7608 96.2269 77.9296 96.2468 78.1076C96.2873 78.469 96.332 78.8682 96.3697 79.1135H96.3965C96.6436 79.023 98.3523 78.2925 98.353 75.3844C98.3527 75.3761 98.353 75.3678 98.3538 75.3596H97.9317C97.9113 75.3594 97.8915 75.3525 97.8753 75.3401C97.8592 75.3277 97.8476 75.3104 97.8424 75.2909C97.8013 75.1893 97.7681 75.0846 97.7432 74.978C97.4949 75.1183 97.2977 75.3325 97.1797 75.5901C97.0677 75.3262 97.0531 75.0319 97.1383 74.7585C97.2235 74.485 97.4032 74.2499 97.646 74.0942C97.6491 73.2456 97.9668 72.4275 98.5389 71.7949L98.5478 71.7871C98.5644 71.7727 98.5857 71.7647 98.6078 71.7645C98.6206 71.7646 98.6332 71.7673 98.6448 71.7725C98.6566 71.7778 98.6672 71.7854 98.6758 71.7949C99.2545 72.4284 99.5705 73.2543 99.5607 74.1079C99.808 74.2593 99.9914 74.4943 100.077 74.7692C100.162 75.0441 100.144 75.3403 100.025 75.6028C99.9077 75.3448 99.7103 75.1304 99.4615 74.9907C99.4463 75.0941 99.4183 75.1953 99.3782 75.2919C99.3643 75.3331 99.3365 75.3596 99.3087 75.3596H98.8586C98.8593 75.3645 98.8598 75.3695 98.8601 75.3744L98.8602 75.3756V75.378C98.8604 75.3822 98.8604 75.3865 98.8602 75.3908C98.8664 78.3825 100.683 79.0615 100.836 79.1135H100.889C100.902 78.8778 100.945 78.5527 100.988 78.2357C101.017 78.0173 101.046 77.8027 101.064 77.624H101.309C101.388 76.5235 101.469 75.426 101.549 74.3286C101.653 72.9248 101.756 71.5201 101.855 70.1097H95.4191C95.4006 70.1133 95.4019 70.1436 95.4034 70.1743Z" fill="#785A3F"/>
<path d="M118.305 57.0981V59.9315C118.331 60.484 118.138 61.0247 117.768 61.4353C117.398 61.846 116.881 62.0933 116.329 62.1233H81.1445C80.5932 62.0932 80.0763 61.8457 79.7067 61.4349C79.3372 61.0242 79.1451 60.4836 79.1725 59.9315V57.0981C79.1459 56.5465 79.3383 56.0068 79.7078 55.5968C80.0773 55.1868 80.5938 54.94 81.1445 54.9102H116.329C116.88 54.9398 117.397 55.1865 117.767 55.5964C118.137 56.0063 118.33 56.5461 118.305 57.0981Z" fill="#785A3F"/>
</svg>
