<svg width="64" height="137" viewBox="0 0 64 137" fill="none" xmlns="http://www.w3.org/2000/svg">
<path opacity="0.2" d="M40.11 128.02C39.5258 125.027 37.3176 122.766 35.5108 120.408C33.7062 118.047 32.1659 114.885 33.2421 112.042C34.2897 109.27 37.3478 108.104 40.1038 107.745C42.8606 107.38 45.8351 107.418 48.058 105.806C51.8244 103.094 51.351 96.4394 47.9836 92.6068C44.6171 88.7916 39.3879 87.6688 34.6283 88.2674C33.2336 88.432 31.5856 88.9699 31.1943 90.406C30.6969 92.229 32.6355 93.6203 34.3183 94.2158C36.002 94.803 38.0653 95.6026 38.3381 97.4704C36.4467 98.1949 34.5198 98.9847 32.9562 100.366C31.3919 101.747 30.2258 103.835 30.3777 105.966C30.4978 107.645 31.4035 109.294 30.9596 110.925C30.0414 114.266 24.7262 114.018 23.4873 117.276C22.6358 119.494 24.2505 121.715 25.1152 123.883C25.962 126.001 26.1015 128.374 26.5703 130.639C27.0398 132.905 27.968 135.251 29.8221 136.436C33.7217 138.928 41.0011 132.627 40.11 128.02Z" fill="#D7D5D5"/>
<path opacity="0.2" d="M19.0628 94.756C16.1882 95.0436 13.1657 93.7789 12.5327 91.0144C11.8361 87.9867 14.0978 84.0668 12.9263 81.2872C11.9671 79.0227 9.24207 78.7571 7.24617 77.9075C4.33444 76.6595 2.75538 73.826 1.31656 71.1943C0.499136 69.696 -0.312083 68.1028 0.12026 65.8649C0.762576 62.4995 3.88815 59.2329 6.86342 57.4614C9.77592 55.6923 13.0875 54.6727 15.6986 55.8167C18.3112 56.9554 19.7586 60.7137 18.1012 63.8757C17.0552 65.8853 15.126 67.2532 13.5872 68.9389C12.0453 70.6245 10.7762 73.1811 11.6494 74.7796C12.8992 77.0714 17.3094 75.4115 18.7374 77.8619C19.733 79.5711 18.6018 82.2613 19.5416 84.0221H19.5424C21.047 86.826 26.9364 84.9446 27.5949 88.6983C28.269 92.5757 21.4794 94.4435 19.0628 94.756Z" fill="#D7D5D5"/>
<path opacity="0.2" d="M55.7094 53.5947C58.3182 55.1461 61.5344 57.2156 63.2165 55.7894C64.8041 54.4512 63.6775 50.9462 62.4921 48.1135C59.5284 41.1545 55.9899 33.185 49.6744 29.6604C46.5992 27.9732 43.228 27.7069 39.9645 26.9748C36.701 26.2147 33.2129 24.7171 32.0561 21.6454C30.6955 18.0381 33.0656 13.8846 35.3537 10.6535C37.8222 10.429 40.4852 10.3372 42.3068 8.88589C44.126 7.44903 44.305 3.87129 42.0495 2.56416C40.4286 1.6409 38.5141 2.49588 37.2969 3.77646C36.0789 5.054 35.2359 6.70177 33.8986 7.92166C31.5943 10.0178 28.2533 10.6065 25.2626 10.8826C22.2718 11.1406 19.343 11.1626 16.4724 12.4704C12.2163 14.3853 8.46549 19.2193 6.60672 24.1246C5.34534 27.4899 5.22214 31.3378 7.6163 31.2968C8.57474 31.2907 9.723 30.6717 10.7721 30.5556C13.3367 30.2901 14.7306 32.8816 17.1999 33.5029C19.6584 34.1318 22.7305 32.852 25.5275 31.6579C28.3207 30.4539 31.3169 29.2758 34.1202 30.0898C36.925 30.9053 39.0844 34.5976 37.4681 37.0275C36.3725 38.6882 34.1349 39.1123 32.156 39.2094C30.1787 39.2951 28.11 39.2147 26.3217 40.2851C24.5335 41.3586 23.3248 44.095 24.5621 45.4439C22.6724 44.9538 20.4611 47.062 20.0636 49.1938C19.6646 51.324 20.6927 53.2062 22.1928 54.3389C27.4785 58.3991 31.7353 52.327 37.348 50.7027C43.4093 48.9768 49.9867 50.1216 55.7094 53.5947Z" fill="#D7D5D5"/>
<path opacity="0.2" d="M29.6817 4.25056C30.7138 3.31896 31.2135 1.83431 30.902 0.573454C28.8713 -0.117664 26.6507 -0.190488 24.4797 0.38987C22.8642 0.80712 20.9124 2.14762 20.8644 3.79538C20.8334 4.81347 21.6284 5.45453 22.5496 5.59033C23.4546 5.63736 28.6574 4.31353 29.6817 4.25056Z" fill="#D7D5D5"/>
</svg>
